<svg width="21" height="21" viewBox="0 0 21 21" fill="none" xmlns="http://www.w3.org/2000/svg">
<path id="facebook" d="M20.978 10.4889C20.9778 8.48443 20.4033 6.52199 19.3225 4.8339C18.2417 3.14581 16.6997 1.80276 14.8793 0.963764C13.0589 0.124768 11.0362 -0.175043 9.05066 0.0998251C7.06514 0.374693 5.19995 1.21273 3.67591 2.51472C2.15187 3.81671 1.03282 5.52813 0.451223 7.44636C-0.130371 9.36459 -0.150144 11.4093 0.394244 13.3384C0.938632 15.2675 2.02438 17.0003 3.52295 18.3315C5.02153 19.6627 6.87016 20.5367 8.85 20.8499V13.5209H6.187V10.4879H8.85V8.17889C8.85 5.55089 10.416 4.09789 12.812 4.09789C13.5986 4.10877 14.3834 4.17729 15.16 4.30289V6.88389H13.837C13.6111 6.85375 13.3814 6.87492 13.1648 6.94582C12.9483 7.01672 12.7505 7.13552 12.5861 7.2934C12.4218 7.45128 12.2952 7.64416 12.2157 7.85772C12.1362 8.07127 12.1059 8.3 12.127 8.52689V10.4939H15.036L14.571 13.5269H12.127V20.8559C14.5951 20.4649 16.8426 19.2058 18.4652 17.3054C20.0877 15.4049 20.9788 12.9878 20.978 10.4889V10.4889Z" fill="#F5EBD9"/>
</svg>
