<svg width="22" height="21" viewBox="0 0 22 21" fill="none" xmlns="http://www.w3.org/2000/svg">
<path id="instagram" d="M10.5779 0C7.72787 0 7.37287 0.013 6.25387 0.063C5.38379 0.0812635 4.52303 0.246247 3.70787 0.551C3.00755 0.81382 2.3731 1.22644 1.84887 1.76C1.31485 2.28386 0.902165 2.91842 0.639867 3.619C0.334707 4.43405 0.169709 5.29488 0.151867 6.165C0.0988672 7.284 0.0888672 7.639 0.0888672 10.489C0.0888672 13.339 0.101867 13.694 0.151867 14.813C0.170226 15.6831 0.335207 16.5438 0.639867 17.359C0.903339 18.0589 1.31626 18.693 1.84987 19.217C2.37357 19.751 3.00772 20.164 3.70787 20.427C4.52308 20.7316 5.38381 20.8965 6.25387 20.915C7.37287 20.967 7.72887 20.978 10.5779 20.978C13.4269 20.978 13.7829 20.965 14.9019 20.915C15.7719 20.8962 16.6326 20.7312 17.4479 20.427C18.1448 20.1577 18.7778 19.7457 19.3062 19.2173C19.8345 18.689 20.2466 18.056 20.5159 17.359C20.8205 16.5438 20.9855 15.6831 21.0039 14.813C21.0559 13.694 21.0669 13.338 21.0669 10.489C21.0669 7.64 21.0539 7.284 21.0039 6.165C20.9852 5.29497 20.8202 4.43428 20.5159 3.619C20.2523 2.91913 19.8394 2.28509 19.3059 1.761C18.7825 1.22657 18.1483 0.813515 17.4479 0.551C16.6328 0.245914 15.772 0.080919 14.9019 0.063C13.7829 0.01 13.4269 0 10.5779 0ZM10.5779 1.888C13.3779 1.888 13.7119 1.902 14.8169 1.95C15.4819 1.95806 16.1406 2.08086 16.7639 2.313C17.2166 2.48588 17.6279 2.75216 17.9709 3.09451C18.314 3.43685 18.5811 3.84759 18.7549 4.3C18.9861 4.92346 19.1082 5.58209 19.1159 6.247C19.1659 7.354 19.1769 7.686 19.1769 10.486C19.1769 13.286 19.1639 13.62 19.1119 14.725C19.0998 15.3901 18.9754 16.0484 18.7439 16.672C18.5732 17.1272 18.3049 17.5395 17.9579 17.88C17.6189 18.2272 17.207 18.4947 16.7519 18.663C16.126 18.8942 15.4651 19.0163 14.7979 19.024C13.6839 19.074 13.3569 19.085 10.5509 19.085C7.74487 19.085 7.41687 19.072 6.30387 19.02C5.6365 19.0078 4.97594 18.8834 4.34987 18.652C3.8945 18.4834 3.48273 18.2148 3.14487 17.866C2.7939 17.5294 2.52469 17.1168 2.35787 16.66C2.12662 16.0352 2.00189 15.3761 1.98887 14.71C1.94987 13.61 1.93587 13.269 1.93587 10.476C1.93587 7.683 1.94987 7.342 1.98887 6.227C2.00078 5.56002 2.12485 4.8998 2.35587 4.274C2.52006 3.81559 2.78963 3.40215 3.14287 3.067C3.47745 2.71449 3.89022 2.44559 4.34787 2.282C4.96909 2.04933 5.62559 1.92486 6.28887 1.914C7.40287 1.875 7.73087 1.862 10.5359 1.862L10.5749 1.888H10.5779ZM10.5779 5.103C9.51262 5.103 8.47129 5.41888 7.58557 6.0107C6.69984 6.60253 6.00951 7.4437 5.60185 8.42787C5.1942 9.41203 5.08754 10.495 5.29536 11.5398C5.50318 12.5845 6.01614 13.5442 6.76939 14.2975C7.52264 15.0507 8.48233 15.5637 9.52711 15.7715C10.5719 15.9793 11.6548 15.8727 12.639 15.465C13.6232 15.0574 14.4643 14.367 15.0562 13.4813C15.648 12.5956 15.9639 11.5543 15.9639 10.489C15.9643 9.78145 15.8252 9.08075 15.5547 8.42695C15.2842 7.77314 14.8876 7.17904 14.3874 6.67858C13.8872 6.17813 13.2933 5.78113 12.6397 5.51027C11.986 5.23941 11.2854 5.1 10.5779 5.1V5.103ZM10.5779 13.985C9.88563 13.985 9.20894 13.7797 8.63337 13.3951C8.0578 13.0106 7.6092 12.4639 7.34429 11.8244C7.07938 11.1849 7.01007 10.4811 7.14512 9.80218C7.28017 9.12325 7.61351 8.49961 8.10299 8.01013C8.59248 7.52064 9.21612 7.1873 9.89505 7.05225C10.574 6.9172 11.2777 6.98651 11.9173 7.25142C12.5568 7.51633 13.1034 7.96493 13.488 8.5405C13.8726 9.11608 14.0779 9.79277 14.0779 10.485C14.0779 11.4133 13.7091 12.3035 13.0527 12.9599C12.3964 13.6163 11.5061 13.985 10.5779 13.985V13.985ZM17.4359 4.89C17.4361 5.13905 17.3624 5.38256 17.2242 5.58974C17.086 5.79691 16.8894 5.95843 16.6594 6.05388C16.4293 6.14932 16.1761 6.1744 15.9319 6.12593C15.6876 6.07746 15.4631 5.95764 15.287 5.7816C15.1108 5.60557 14.9908 5.38124 14.9421 5.13699C14.8935 4.89274 14.9183 4.63954 15.0136 4.40943C15.1089 4.17932 15.2702 3.98263 15.4773 3.84425C15.6844 3.70586 15.9278 3.632 16.1769 3.632C16.5105 3.63226 16.8304 3.76486 17.0665 4.00069C17.3025 4.23653 17.4353 4.55635 17.4359 4.89V4.89Z" fill="#F5EBD9"/>
</svg>
